<svg xmlns="http://www.w3.org/2000/svg" width="1920" height="1080" viewBox="0 0 1920 1080">
  <defs>
    <linearGradient id="bg" x1="0" x2="1" y1="0" y2="1">
      <stop offset="0" stop-color="#08111f"/>
      <stop offset="0.55" stop-color="#122f45"/>
      <stop offset="1" stop-color="#0f172a"/>
    </linearGradient>
    <filter id="glow" x="-20%" y="-20%" width="140%" height="140%">
      <feGaussianBlur stdDeviation="2" result="blur"/>
      <feMerge>
        <feMergeNode in="blur"/>
        <feMergeNode in="SourceGraphic"/>
      </feMerge>
    </filter>
    <pattern id="grid" width="96" height="96" patternUnits="userSpaceOnUse">
      <path d="M0 48H96M48 0V96" stroke="#5eead4" stroke-width="1" opacity=".16"/>
      <circle cx="48" cy="48" r="4" fill="#e0f2fe" opacity=".55"/>
    </pattern>
  </defs>
  <rect width="1920" height="1080" fill="url(#bg)"/>
  <rect width="1920" height="1080" fill="url(#grid)" opacity=".82"/>
  <g filter="url(#glow)" stroke="#dff9ff" stroke-linecap="round" stroke-width="5" opacity=".68" fill="none">
    <path d="M80 850h270v-110h180v-190h210v-140h250"/>
    <path d="M180 240h260v130h300v-90h220v150h300"/>
    <path d="M820 940V710h150V560h270V390h360"/>
    <path d="M1260 190h180v130h250v260h160"/>
    <path d="M1190 785h260v-90h180v-145h220"/>
  </g>
  <g fill="#f8fafc" opacity=".88">
    <circle cx="350" cy="740" r="18"/>
    <circle cx="530" cy="550" r="18"/>
    <circle cx="990" cy="410" r="18"/>
    <circle cx="740" cy="280" r="18"/>
    <circle cx="1260" cy="430" r="18"/>
    <circle cx="1600" cy="390" r="18"/>
    <circle cx="1450" cy="695" r="18"/>
  </g>
  <g fill="#0b1220" stroke="#dff9ff" stroke-width="5" opacity=".78">
    <rect x="760" y="445" width="360" height="240" rx="28"/>
    <rect x="810" y="495" width="260" height="140" rx="18"/>
    <path d="M715 485h-120M715 545h-120M715 605h-120M1165 485h120M1165 545h120M1165 605h120M820 400v-90M910 400v-90M1000 400v-90M820 730v90M910 730v90M1000 730v90"/>
  </g>
  <rect width="1920" height="1080" fill="#020617" opacity=".26"/>
</svg>
